<svg width="512" height="512" viewBox="0 0 512 512" fill="none" xmlns="http://www.w3.org/2000/svg">
  <defs>
    <linearGradient id="bg" x1="64" y1="56" x2="448" y2="456" gradientUnits="userSpaceOnUse">
      <stop stop-color="#0F3B35" />
      <stop offset="1" stop-color="#091513" />
    </linearGradient>
    <linearGradient id="glow" x1="140" y1="136" x2="378" y2="392" gradientUnits="userSpaceOnUse">
      <stop stop-color="#96F2DE" stop-opacity="0.95" />
      <stop offset="1" stop-color="#22D3AA" stop-opacity="0.92" />
    </linearGradient>
    <linearGradient id="tower" x1="196" y1="154" x2="316" y2="360" gradientUnits="userSpaceOnUse">
      <stop stop-color="#0E2521" />
      <stop offset="1" stop-color="#07110F" />
    </linearGradient>
    <filter id="blur" x="-50%" y="-50%" width="200%" height="200%">
      <feGaussianBlur stdDeviation="22" />
    </filter>
  </defs>
  <rect x="18" y="18" width="476" height="476" rx="120" fill="url(#bg)" />
  <circle cx="164" cy="152" r="86" fill="#22D3AA" opacity="0.14" filter="url(#blur)" />
  <circle cx="356" cy="356" r="112" fill="#96F2DE" opacity="0.12" filter="url(#blur)" />
  <rect x="134" y="116" width="244" height="280" rx="54" fill="url(#glow)" opacity="0.12" />
  <rect x="166" y="144" width="180" height="228" rx="42" fill="url(#tower)" stroke="rgba(255,255,255,0.12)" stroke-width="3.5" />
  <rect x="186" y="164" width="140" height="22" rx="11" fill="#96F2DE" />
  <rect x="186" y="198" width="52" height="52" rx="14" fill="white" opacity="0.12" />
  <rect x="252" y="198" width="52" height="52" rx="14" fill="white" opacity="0.12" />
  <rect x="186" y="264" width="52" height="52" rx="14" fill="white" opacity="0.12" />
  <rect x="252" y="264" width="52" height="52" rx="14" fill="white" opacity="0.12" />
  <rect x="212" y="332" width="76" height="26" rx="13" fill="#96F2DE" opacity="0.9" />
</svg>
